HIERARCHY
ROOT Hips
{
  OFFSET -125.086 92.215 135.881
  CHANNELS 6 Xposition Yposition Zposition Zrotation Xrotation Yrotation
  JOINT LeftUpLeg
  {
    OFFSET 8.64259 1.95398 -2.38835
    CHANNELS 3 Zrotation Xrotation Yrotation
    JOINT LeftLeg
    {
      OFFSET 43.7702 0 0
      CHANNELS 3 Zrotation Xrotation Yrotation
      JOINT LeftFoot
      {
        OFFSET 40.6238 0 0
        CHANNELS 3 Zrotation Xrotation Yrotation
        JOINT LeftToeBase
        {
          OFFSET 12.7242 0 0
          CHANNELS 3 Zrotation Xrotation Yrotation
          End Site
          {
            OFFSET 0 0 0
          }
        }
      }
    }
  }
  JOINT RightUpLeg
  {
    OFFSET -8.2249 1.95398 -2.59336
    CHANNELS 3 Zrotation Xrotation Yrotation
    JOINT RightLeg
    {
      OFFSET 43.5653 0 0
      CHANNELS 3 Zrotation Xrotation Yrotation
      JOINT RightFoot
      {
        OFFSET 40.6238 0 0
        CHANNELS 3 Zrotation Xrotation Yrotation
        JOINT RightToeBase
        {
          OFFSET 12.7242 0 0
          CHANNELS 3 Zrotation Xrotation Yrotation
          End Site
          {
            OFFSET 0 0 0
          }
        }
      }
    }
  }
  JOINT Spine
  {
    OFFSET 0.165834 0.87714 6.61349
    CHANNELS 3 Zrotation Xrotation Yrotation
    JOINT Spine1
    {
      OFFSET 7.38963 1.71661e-005 0
      CHANNELS 3 Zrotation Xrotation Yrotation
      JOINT Spine2
      {
        OFFSET 11.9445 1.14441e-005 0
        CHANNELS 3 Zrotation Xrotation Yrotation
        JOINT Spine3
        {
          OFFSET 14.7254 4.19617e-005 0
          CHANNELS 3 Zrotation Xrotation Yrotation
          JOINT Spine4
          {
            OFFSET 10.9679 0 0
            CHANNELS 3 Zrotation Xrotation Yrotation
            JOINT RightShoulder
            {
              OFFSET 2.46616 -1.6653 3.69651
              CHANNELS 3 Zrotation Xrotation Yrotation
              JOINT RightArm
              {
                OFFSET 13.0012 0 0
                CHANNELS 3 Zrotation Xrotation Yrotation
                JOINT RightForeArm
                {
                  OFFSET 28.7848 1.52588e-005 0
                  CHANNELS 3 Zrotation Xrotation Yrotation
                  JOINT RightHand
                  {
                    OFFSET 26.5688 1.52588e-005 0
                    CHANNELS 3 Zrotation Xrotation Yrotation
                    End Site
                    {
                      OFFSET 0 0 0
                    }
                  }
                }
              }
            }
            JOINT LeftShoulder
            {
              OFFSET 2.38034 -1.29275 -3.7523
              CHANNELS 3 Zrotation Xrotation Yrotation
              JOINT LeftArm
              {
                OFFSET 16.3182 6.10352e-005 0
                CHANNELS 3 Zrotation Xrotation Yrotation
                JOINT LeftForeArm
                {
                  OFFSET 27.0901 0 0
                  CHANNELS 3 Zrotation Xrotation Yrotation
                  JOINT LeftHand
                  {
                    OFFSET 24.5451 1.52588e-005 0
                    CHANNELS 3 Zrotation Xrotation Yrotation
                    End Site
                    {
                      OFFSET 0 0 0
                    }
                  }
                }
              }
            }
            JOINT Neck
            {
              OFFSET 5.0226 -0.0266342 0
              CHANNELS 3 Zrotation Xrotation Yrotation
              JOINT Head
              {
                OFFSET 6.69363 2.86102e-005 0
                CHANNELS 3 Zrotation Xrotation Yrotation
                End Site
                {
                  OFFSET 0 0 0
                }
              }
            }
          }
        }
      }
    }
  }
}
MOTION
Frames:	19
Frame Time:	0.0416667
259.839 75.5953 263.257 -51.7726 52.9543 -69.8006 -157.453 10.1159 140.282 -81.6036 -72.9005 -47.8077 -7.10404 -27.1168 -75.3935 -113.252 8.96986 7.48337 -175.058 20.0395 126.128 128.972 76.1013 172.777 90.0787 41.0593 117.714 9.9154 5.4719 -8.81871 2.04418 11.9975 -94.1885 2.89047 2.43591 -8.1576 -8.80437 2.07575 -8.25596 -31.1951 4.7693 -7.05752 -11.1824 4.7693 -7.05753 104.825 -17.1686 -75.2302 64.1821 -18.2173 -16.4768 -171.892 16.8424 -60.804 27.6784 -6.54338 -30.5388 41.5917 1.00327 -100.771 -134.109 -10.4904 18.5548 36.0844 -14.9953 0.0485697 -2.58505 -1.36799 156.732 21.6583 -2.70004 10.4801 24.6159 -9.06197 -11.923 
260.363 75.5946 263.775 -51.1662 52.8223 -69.565 -158.187 11.9279 141.275 -74.3484 -69.6134 -39.3238 -5.24594 -28.1694 -76.4469 -111.83 16.4804 5.67302 -174.402 19.458 126.527 129.997 75.7477 172.699 87.4463 39.8935 119.429 9.84797 5.35728 -8.35082 2.11357 11.9437 -94.3036 2.99965 2.52545 -8.38682 -8.69652 2.15525 -8.48884 -31.0796 4.92313 -7.25007 -11.0669 4.92313 -7.25007 104.933 -16.8864 -74.9082 64.3079 -18.126 -16.5403 -170.539 17.4724 -61.3125 28.2378 -6.59242 -30.2231 40.21 1.18117 -101.161 -134.043 -11.367 19.0765 35.8826 -16.5505 0.0489435 -2.36328 -0.044925 157.32 21.5813 -2.81163 10.6825 24.7731 -9.23297 -11.8824 
261.897 75.5938 265.28 -49.3911 52.4298 -68.8869 -160.856 17.3832 144.5 -61.768 -54.671 -23.4772 6.38287 -32.6115 -75.5414 -98.1144 42.3705 -4.22763 -172.454 17.8085 127.696 133.247 74.641 172.55 80.2895 35.9443 123.771 9.48364 5.01656 -6.83086 2.31455 11.778 -94.6379 3.3356 2.78255 -9.05582 -8.36466 2.38302 -9.1682 -30.724 5.36785 -7.81352 -10.7114 5.36786 -7.81353 105.23 -16.0402 -73.9948 64.6847 -17.8449 -16.6861 -166.412 19.2822 -62.9293 29.9372 -6.68985 -29.1444 36.5856 1.64337 -102.193 -133.873 -13.5191 20.3835 35.1845 -19.6315 0.0498111 -1.97142 2.56007 158.925 21.3324 -3.14994 11.2749 25.2267 -9.73896 -11.7616 
264.41 75.5949 267.728 -46.4963 51.7699 -67.814 -166.189 26.7269 149.648 -52.8914 -5.91941 -14.5196 58.059 -27.2875 -31.9396 32.449 0.714889 -90.6878 -169.089 15.2027 129.602 139.342 72.4326 172.734 70.4758 28.0503 128.597 8.37231 4.46031 -4.04061 2.63675 11.4804 -95.1762 3.93928 3.18703 -10.144 -7.76829 2.73991 -10.2725 -30.0851 6.07759 -8.73502 -10.0725 6.0776 -8.73504 105.669 -14.6109 -72.5474 65.3487 -17.3303 -16.7851 -159.103 22.0872 -66.0075 32.8731 -6.64029 -26.8201 31.9066 2.22051 -103.557 -133.627 -15.8873 21.8635 33.5951 -16.3297 0.0488879 -2.38179 -0.361559 161.301 20.8397 -3.75545 12.2477 25.961 -10.5947 -11.544 
267.931 75.616 271.074 -42.5483 50.8225 -66.4007 -171.211 35.9926 155.148 -43.8383 41.2956 -19.8382 64.7671 6.9275 7.9454 94.8434 -2.94227 6.04558 -163.614 11.3466 132.243 149.994 68.0404 174.227 60.6954 14.8428 131.083 6.00599 3.73852 -0.164796 3.06745 11.0137 -95.9013 4.88652 3.70949 -11.6321 -6.83243 3.19761 -11.7812 -29.0825 7.01776 -10.0065 -9.06978 7.01777 -10.0065 106.178 -12.498 -70.6424 66.3964 -16.4727 -16.605 -147.983 25.4215 -71.1269 36.9893 -5.96784 -22.4177 27.8055 2.6801 -104.808 -133.154 -17.2231 22.6878 29.3086 25.5883 0.0467888 -7.74536 -37.4188 159.822 19.9562 -4.72844 13.5975 26.981 -11.852 -11.1874 
272.507 75.7397 275.307 -37.6732 49.5608 -64.7136 -179.795 45.1023 164.591 -35.8418 59.1764 -28.8414 60.1107 20.1819 21.2993 88.2659 7.50026 29.7801 -153.279 4.31741 135.744 172.149 62.3941 178.294 53.897 -4.28833 125.536 2.25616 2.97046 3.9223 3.58663 10.3278 -96.7847 6.27758 4.30403 -13.4903 -5.45783 3.71181 -13.6622 -27.6092 8.13423 -11.6153 -7.59651 8.13423 -11.6152 106.64 -9.491 -68.3977 67.986 -15.0778 -15.8024 -132.931 28.2536 -78.6628 41.5988 -3.93481 -15.193 26.0937 2.77188 -105.412 -131.97 -16.3897 21.977 -157.848 64.3128 179.925 -128.485 -59.4385 27.8652 18.4668 -6.23435 15.3093 28.3132 -13.5953 -10.6277 
278.136 76.079 280.423 -32.0741 47.9564 -62.8377 164.427 53.7453 179.288 -25.6925 69.65 -39.7921 60.128 28.7015 26.5424 76.4999 9.15268 41.9436 -149.444 5.51024 139.946 178.335 56.9191 179.562 43.5284 -14.3985 120.736 -2.37483 2.37255 7.07509 4.16627 9.33383 -97.7842 8.28807 4.90185 -15.6705 -3.47007 4.21629 -15.8641 -25.4814 9.34504 -13.5386 -5.46871 9.34506 -13.5386 106.848 -5.21578 -66.0874 70.3786 -12.642 -13.6621 -115.576 29.2851 -87.7779 45.2009 -0.155822 -5.39441 30.447 1.8378 -104.346 -129.722 -10.2949 17.3568 -162.54 31.5615 179.97 -101.182 -40.5244 31.2585 15.8677 -8.6339 17.2268 30.0549 -15.9823 -9.73883 
284.751 76.7899 286.368 -25.994 45.9785 -60.9001 138.969 59.135 -159.908 -10.9157 77.6655 -53.7663 61.8567 33.4062 28.2058 65.5151 7.62201 49.9537 -149.415 10.357 143.977 177.987 52.3659 179.467 32.5605 -19.4984 115.768 -7.0025 2.18313 8.65703 4.72964 8.12205 -98.8206 10.7333 5.37113 -18.0271 -1.05383 4.586 -18.236 -22.8792 10.4794 -15.6784 -2.86653 10.4794 -15.6784 106.678 0.647173 -63.647 73.465 -9.65863 -10.8413 -99.036 28.047 -96.5358 46.5768 4.54152 5.34381 34.7935 1.13671 -103.124 -125.926 -4.5558 12.4555 -165.73 28.0282 179.976 -81.3306 -36.3013 38.9443 13.0051 -11.5246 19.5394 31.9062 -18.7842 -8.75059 
292.597 77.3277 293.314 -19.6036 43.5846 -59.103 106.663 57.8675 -136.877 6.05163 84.3256 -71.0344 64.1739 35.0703 28.1245 57.3096 5.33793 55.0976 -150.268 15.5329 147.845 178.128 47.8231 179.451 22.6122 -22.9417 110.083 -10.9254 2.47411 8.82844 5.7005 6.46902 -99.7278 14.142 6.55855 -20.3984 2.32441 5.67401 -20.6516 -19.3309 12.2985 -17.6307 0.681759 12.2985 -17.6307 106.782 7.58104 -57.4979 76.9617 -5.74351 -7.42993 -85.5649 25.7221 -103.254 45.9851 8.76388 15.1478 23.0355 0.950037 -107.979 -119.322 -17.1149 19.0009 -168.203 26.788 179.979 -76.5326 -33.5676 39.0487 11.301 -16.8146 21.053 33.9636 -23.2499 -6.32813 
301.436 77.5749 301.107 -12.9506 40.7306 -57.7034 81.0825 51.6502 -124.949 -174.905 89.4977 111.565 67.0953 32.8265 26.4822 51.9007 3.39606 58.4081 -152.189 20.891 151.329 178.231 43.4999 179.43 13.743 -24.7282 104.679 -13.8762 3.12378 8.10659 6.40742 4.67129 -100.383 17.84 7.21773 -22.3942 5.99277 6.25095 -22.6694 -15.4812 13.4989 -19.3836 4.53145 13.4989 -19.3836 105.445 16.1137 -52.9289 80.746 -0.970544 -2.95043 -75.2868 22.7621 -107.936 44.4384 11.8621 23.0957 16.0006 0.771593 -111.175 -110.469 -25.9387 24.8962 -169.717 25.0668 179.981 -75.9905 -31.8876 37.3239 9.13124 -21.6585 22.5748 35.9858 -27.2682 -4.30434 
310.707 77.9145 309.365 -6.11182 37.4504 -56.889 64.3295 46.6418 -126.016 -135.967 79.7343 80.2285 72.7429 26.2336 22.5156 48.5632 2.03193 60.6505 -155.176 26.2148 154.277 178.292 39.4415 179.405 6.05454 -25.3622 99.8914 -15.9037 3.94238 6.9708 7.30257 2.02132 -100.166 23.2485 8.45586 -23.0786 11.3951 7.4604 -23.4026 -10.0899 14.8793 -19.689 9.92276 14.8793 -19.689 103.264 24.7759 -47.6272 83.8437 8.70738 6.39734 -67.2469 20.4264 -110.773 42.7183 13.9065 29.1008 11.7672 -3.65983 -118.046 -97.194 -34.2923 33.7825 -170.334 22.5212 179.982 -76.7274 -30.7074 35.3373 5.46242 -30.0437 18.0673 39.5139 -32.4266 0.254386 
320.138 78.1596 317.88 0.562282 33.9925 -56.5944 55.5419 44.6649 -133.317 -118.819 71.6542 78.7961 76.9926 15.497 16.2572 46.5512 1.15006 62.2837 -158.697 31.1543 156.557 178.323 35.783 179.384 -0.533954 -25.2341 95.8958 -17.2026 4.77509 5.73575 8.41742 -0.97246 -99.0072 29.7215 10.3341 -22.6305 17.8876 9.35514 -23.034 -3.81595 16.5506 -18.6874 16.1967 16.5506 -18.6874 97.9205 37.8977 -43.5879 83.8787 23.8779 23.3251 -60.7437 18.7431 -111.873 41.1638 15.1864 33.4763 7.42924 -11.7075 -126.49 -76.066 -41.575 49.712 -169.788 18.7518 179.982 -77.6662 -29.8215 33.6206 -0.572624 -40.8404 10.0298 44.9021 -38.6552 7.32511 
329.428 78.1599 326.378 6.5568 30.748 -56.5384 56.368 44.9157 -138.639 -85.2776 80.5153 70.4729 70.5654 1.01926 7.39092 45.3361 0.595275 63.5296 -162.046 35.4302 158.193 178.345 32.6472 179.375 -6.13967 -24.6615 92.6898 -17.981 5.54044 4.55227 8.70052 -2.5327 -98.41 32.9748 10.7441 -22.2861 21.1497 9.77879 -22.7081 -0.632593 16.8449 -18.225 19.3801 16.8449 -18.2251 93.1793 48.4364 -44.1199 82.2494 31.1228 33.5142 -56.0176 16.1084 -112.117 39.8368 15.9527 36.6139 3.6435 -11.7733 -129.333 -59.6652 -43.1299 62.5398 -168.702 14.5222 179.983 -78.4998 -29.1332 32.2491 -2.5621 -44.1378 9.62158 46.9741 -41.2005 9.00217 
338.285 77.8467 334.574 11.5801 27.9603 -56.4961 53.3156 40.974 -141.684 -26.492 82.805 22.4697 64.1089 -5.52726 1.21584 44.5957 0.24749 64.4928 -164.791 38.936 159.316 178.373 30.0803 179.381 -10.8735 -23.8606 90.1931 -18.3977 6.21221 3.4709 8.88429 -3.67879 -97.7851 35.3732 11.1154 -21.6826 23.5611 10.1742 -22.1226 1.67467 17.0274 -17.5194 21.6873 17.0274 -17.5194 89.4436 56.6314 -45.5237 79.159 36.4154 42.718 -52.3312 13.7106 -111.585 38.7304 16.377 38.8198 0.67849 -11.5608 -131.36 -46.2821 -42.0846 72.4973 -167.372 10.4878 179.982 -79.147 -28.5737 31.172 -4.01537 -46.0951 9.40656 48.3565 -42.8882 9.57211 
346.44 77.2481 342.188 15.5338 25.5421 -56.5315 47.0352 34.8758 -144.098 -16.7886 79.0308 13.2307 61.1876 -6.78667 -1.96936 44.1321 0.0250007 65.2395 -166.794 41.5206 159.885 178.418 28.0545 179.406 -14.8131 -22.9935 88.3011 -18.5625 6.79239 2.49426 9.04715 -4.51832 -97.1584 37.1487 11.5497 -20.9659 25.3519 10.6375 -21.4271 3.34462 17.2368 -16.6832 23.3573 17.2368 -16.6832 86.6424 63.3789 -47.56 75.2242 40.277 51.498 -49.3728 11.6155 -110.484 37.789 16.563 40.3341 -1.79415 -11.4885 -133.216 -35.7893 -39.81 79.8058 -165.931 6.85013 179.981 -79.5567 -28.1029 30.3574 -5.13063 -47.3827 9.17038 49.3164 -44.1803 9.45853 
353.719 76.3637 349.005 18.9013 24.7297 -55.2198 42.9658 28.9669 -146.574 -10.7806 75.9061 8.08429 58.3536 -7.67785 -5.12899 43.829 -0.123289 65.7848 -168.539 44.5227 161.752 178.479 26.6748 179.418 -18.1265 -22.0249 86.8917 -18.5486 7.29637 1.60173 9.19586 -5.31143 -96.7003 38.823 11.8654 -20.5359 27.0356 10.9706 -21.0124 4.95179 17.4145 -16.1643 24.9645 17.4145 -16.1643 84.7592 68.8706 -49.8936 71.2316 42.8173 59.3408 -46.9356 9.72553 -109.026 36.9451 16.571 41.3391 -3.80563 -11.7012 -135.037 -28.3051 -37.3084 84.6042 -164.585 3.83609 179.98 -79.7086 -27.683 29.7601 -5.95647 -48.1263 8.93961 49.8603 -45.2022 8.64273 
359.878 75.5188 354.772 21.8011 23.4741 -56.9788 39.3712 24.6881 -147.165 -6.91611 71.4593 4.7714 55.9281 -7.91988 -7.48127 43.5901 -0.24226 66.2379 -168.258 45.6056 159.862 178.546 25.9165 179.492 -20.6516 -21.5044 85.7823 -18.4063 7.74482 0.764041 9.49141 -5.63078 -96.0653 39.5986 12.7117 -19.7652 27.8307 11.8479 -20.2812 5.58172 17.9999 -15.1462 25.5944 17.9999 -15.1462 83.5137 73.3439 -52.0913 67.7402 44.3095 65.926 -44.8721 7.9115 -107.375 36.1363 16.4333 41.9619 -5.33413 -12.3267 -136.908 -23.5976 -35.2901 87.3436 -163.57 1.64134 179.979 -79.5869 -27.28 29.3406 -6.5872 -48.4521 8.69355 50.01 -46.0765 7.10183 
364.838 74.6873 359.427 23.7867 21.9997 -58.3563 36.5547 21.5463 -147.774 -4.89536 67.7367 3.14318 54.0879 -7.92796 -9.24288 43.3836 -0.348182 66.5559 -168.191 45.8695 158.267 178.64 25.46 179.565 -22.5443 -21.0887 85.0128 -18.1415 8.1546 -0.0525601 9.67574 -5.80311 -95.5322 40.0358 13.3448 -19.0243 28.285 12.511 -19.5709 5.89736 18.3887 -14.2221 25.91 18.3886 -14.2221 82.3026 77.0072 -53.474 65.0489 45.0377 71.1226 -43.0805 6.03207 -105.649 35.307 16.1649 42.2883 -6.3448 -13.4682 -138.869 -21.4804 -34.1941 88.3902 -163.156 0.422943 179.978 -79.1701 -26.8645 29.0705 -7.12044 -48.4662 8.39846 49.7769 -46.9132 4.77546 
368.521 73.923 362.883 25.2483 20.7994 -59.3075 34.4844 19.1048 -148.205 -3.77077 64.8666 2.28638 52.814 -7.82551 -10.4754 43.1746 -0.458579 66.7564 -168.419 45.7192 157.231 178.742 25.4502 179.631 -23.8654 -20.8329 84.5096 -17.7706 8.54608 -0.883626 9.79005 -5.91538 -95.0956 40.3194 13.8103 -18.3735 28.5828 13.0032 -18.9432 6.08488 18.6428 -13.4383 26.0975 18.6428 -13.4383 79.9232 80.0093 -52.7666 63.2733 45.2086 74.9065 -41.4905 3.93257 -103.943 34.4041 15.7692 42.3765 -6.80786 -15.2181 -140.935 -21.9649 -34.2502 87.8482 -163.649 0.292084 179.977 -78.4248 -26.4105 28.9334 -7.63406 -48.2553 8.02742 49.1378 -47.8161 1.53369 
